# xmcd
#
# Track frame offsets:
#  150
#  11067
#  22166
#  35141
#  44928
#  62602
#  75145
#  86205
#  101218
#  131365
#  148578
#  166005
#  186523
#  201464
#  218661
#  230511
#  240036
#  255172
#  267709
#  288081
#
# Disc length: 3994 seconds
#
# Revision: 0
# Processed by: cddbd v1.5.1PL2 Copyright (c) Steve Scherf et al.
# Submitted via: Collectorz.com_Music_Collector 6.9
#
DISCID=1f0f9814
DTITLE=John Mayall And The Bluesbreakers featuring Eric Clapton - Bluesbreaking
DYEAR=1900
DGENRE=
TTITLE0=Crawling Up A Hill
TTITLE1=Crocodile Walk
TTITLE2=Bye Bye Bird
TTITLE3=I'm Your Witchdoctor
TTITLE4=Telephone Blues
TTITLE5=On Top Of The World
TTITLE6=Maudie
TTITLE7=It Hurts To Be In Love
TTITLE8=Have You Ever Loved A Woman
TTITLE9=Bye Bye Bird
TTITLE10=Hoochie Coochie Man
TTITLE11=(They Call It) Stormy Monday
TTITLE12=Lonely Years
TTITLE13=Bernard Jenkins
TTITLE14=On Top Of The World
TTITLE15=Key To Love
TTITLE16=Hideaway
TTITLE17=Little Girl
TTITLE18=Tears In My Eyes
TTITLE19=Parchman Farm
EXTD=
EXTT0=
EXTT1=
EXTT2=
EXTT3=
EXTT4=
EXTT5=
EXTT6=
EXTT7=
EXTT8=
EXTT9=
EXTT10=
EXTT11=
EXTT12=
EXTT13=
EXTT14=
EXTT15=
EXTT16=
EXTT17=
EXTT18=
EXTT19=
PLAYORDER=
